<svg xmlns="http://www.w3.org/2000/svg" width="1483" height="539" viewBox="0 0 1483 539">
<rect width="100%" height="100%" fill="#ffffff"/>
<text x="40.0" y="34.0" font-family="Helvetica, Arial, sans-serif" font-size="15" fill="#1a1a1a" text-anchor="start" font-weight="bold">Python Class Map</text>
<text x="40.0" y="50.0" font-family="Helvetica, Arial, sans-serif" font-size="9" fill="#6b6b6b" text-anchor="start">demo - 2026-09-25 - showing: creates (member), creates, holds, calls, inherits - external bases hidden - focused on ExpenseTracker</text>
<rect x="40" y="62" width="520" height="123" rx="4" fill="#f7f7f7" stroke="#bfbfbf" stroke-width="0.8"/>
<text x="52.0" y="78.0" font-family="Helvetica, Arial, sans-serif" font-size="9" fill="#1a1a1a" text-anchor="start" font-weight="bold">Legend - relationship kinds</text>
<line x1="52" y1="89" x2="86" y2="89" stroke="rgb(214,69,64)" stroke-width="1.4"/>
<polygon points="92.0,89.0 84.5,92.2 84.5,85.8" fill="rgb(214,69,64)" stroke="rgb(214,69,64)" stroke-width="1"/>
<text x="102.0" y="92.0" font-family="Helvetica, Arial, sans-serif" font-size="9" fill="rgb(214,69,64)" text-anchor="start" font-weight="bold">creates (member)</text>
<text x="192.0" y="92.0" font-family="Helvetica, Arial, sans-serif" font-size="8.5" fill="#404040" text-anchor="start">self.attr = Foo() - the instance is stored on the object (owned for its lifetime)</text>
<line x1="52" y1="104" x2="86" y2="104" stroke="rgb(184,135,20)" stroke-width="1.4"/>
<polygon points="92.0,104.0 84.5,107.2 84.5,100.8" fill="rgb(184,135,20)" stroke="rgb(184,135,20)" stroke-width="1"/>
<text x="102.0" y="107.0" font-family="Helvetica, Arial, sans-serif" font-size="9" fill="rgb(184,135,20)" text-anchor="start" font-weight="bold">creates</text>
<text x="192.0" y="107.0" font-family="Helvetica, Arial, sans-serif" font-size="8.5" fill="#404040" text-anchor="start">Foo() on the fly in a method or function body - not stored on self</text>
<line x1="52" y1="119" x2="86" y2="119" stroke="rgb(46,163,79)" stroke-width="1.4" stroke-dasharray="5,3"/>
<polygon points="92.0,119.0 84.5,122.2 84.5,115.8" fill="rgb(46,163,79)" stroke="rgb(46,163,79)" stroke-width="1"/>
<text x="102.0" y="122.0" font-family="Helvetica, Arial, sans-serif" font-size="9" fill="rgb(46,163,79)" text-anchor="start" font-weight="bold">holds</text>
<text x="192.0" y="122.0" font-family="Helvetica, Arial, sans-serif" font-size="8.5" fill="#404040" text-anchor="start">typed __init__ param or class field - holds an instance it did not create</text>
<line x1="52" y1="134" x2="86" y2="134" stroke="rgb(48,110,204)" stroke-width="1.4" stroke-dasharray="2,3"/>
<polygon points="92.0,134.0 84.5,137.2 84.5,130.8" fill="rgb(48,110,204)" stroke="rgb(48,110,204)" stroke-width="1"/>
<text x="102.0" y="137.0" font-family="Helvetica, Arial, sans-serif" font-size="9" fill="rgb(48,110,204)" text-anchor="start" font-weight="bold">calls</text>
<text x="192.0" y="137.0" font-family="Helvetica, Arial, sans-serif" font-size="8.5" fill="#404040" text-anchor="start">calls a project function that (transitively) creates instances</text>
<line x1="52" y1="149" x2="86" y2="149" stroke="rgb(130,87,222)" stroke-width="1.4"/>
<polygon points="92.0,149.0 83.0,153.5 83.0,144.5" fill="#ffffff" stroke="rgb(130,87,222)" stroke-width="1"/>
<text x="102.0" y="152.0" font-family="Helvetica, Arial, sans-serif" font-size="9" fill="rgb(130,87,222)" text-anchor="start" font-weight="bold">inherits</text>
<text x="192.0" y="152.0" font-family="Helvetica, Arial, sans-serif" font-size="8.5" fill="#404040" text-anchor="start">subclassing (is-a) - drawn with a hollow triangle arrowhead</text>
<text x="52.0" y="169.0" font-family="Helvetica, Arial, sans-serif" font-size="8.5" fill="#6b6b6b" text-anchor="start">Nodes: square corners = class, pill = function, dashed border = module, dotted = external</text>
<path d="M 749.8 316.0 C 1038.1 316.0, 1038.1 400.0, 1320.4 400.0" fill="none" stroke="rgb(46,163,79)" stroke-width="1.1" stroke-dasharray="5,3"/>
<polygon points="1325.4,400.0 1317.9,403.2 1317.9,396.8" fill="rgb(46,163,79)" stroke="rgb(46,163,79)" stroke-width="1"/>
<path d="M 511.5 316.0 C 561.5 316.0, 561.5 316.0, 605.5 316.0" fill="none" stroke="rgb(46,163,79)" stroke-width="1.1" stroke-dasharray="5,3"/>
<polygon points="610.5,316.0 603.0,319.2 603.0,312.8" fill="rgb(46,163,79)" stroke="rgb(46,163,79)" stroke-width="1"/>
<path d="M 511.5 316.0 C 561.5 316.0, 561.5 372.0, 605.5 372.0" fill="none" stroke="rgb(184,135,20)" stroke-width="1.1"/>
<polygon points="610.5,372.0 603.0,375.2 603.0,368.8" fill="rgb(184,135,20)" stroke="rgb(184,135,20)" stroke-width="1"/>
<path d="M 511.5 316.0 C 561.5 316.0, 561.5 484.0, 605.5 484.0" fill="none" stroke="rgb(130,87,222)" stroke-width="1.1"/>
<polygon points="610.5,484.0 601.5,488.5 601.5,479.5" fill="#ffffff" stroke="rgb(130,87,222)" stroke-width="1"/>
<path d="M 511.5 316.0 C 702.5 316.0, 702.5 372.0, 887.6 372.0" fill="none" stroke="rgb(184,135,20)" stroke-width="1.1"/>
<polygon points="892.6,372.0 885.1,375.2 885.1,368.8" fill="rgb(184,135,20)" stroke="rgb(184,135,20)" stroke-width="1"/>
<path d="M 511.5 316.0 C 918.9 316.0, 918.9 344.0, 1320.4 344.0" fill="none" stroke="rgb(184,135,20)" stroke-width="1.1"/>
<polygon points="1325.4,344.0 1317.9,347.2 1317.9,340.8" fill="rgb(184,135,20)" stroke="rgb(184,135,20)" stroke-width="1"/>
<path d="M 438.5 372.0 C 525.0 372.0, 525.0 372.0, 605.5 372.0" fill="none" stroke="rgb(184,135,20)" stroke-width="1.1"/>
<polygon points="610.5,372.0 603.0,375.2 603.0,368.8" fill="rgb(184,135,20)" stroke="rgb(184,135,20)" stroke-width="1"/>
<path d="M 438.5 372.0 C 525.0 372.0, 525.0 484.0, 605.5 484.0" fill="none" stroke="rgb(130,87,222)" stroke-width="1.1"/>
<polygon points="610.5,484.0 601.5,488.5 601.5,479.5" fill="#ffffff" stroke="rgb(130,87,222)" stroke-width="1"/>
<path d="M 438.5 372.0 C 882.4 372.0, 882.4 400.0, 1320.4 400.0" fill="none" stroke="rgb(184,135,20)" stroke-width="1.1"/>
<polygon points="1325.4,400.0 1317.9,403.2 1317.9,396.8" fill="rgb(184,135,20)" stroke="rgb(184,135,20)" stroke-width="1"/>
<path d="M 438.5 372.0 C 666.0 372.0, 666.0 372.0, 887.6 372.0" fill="none" stroke="rgb(184,135,20)" stroke-width="1.1"/>
<polygon points="892.6,372.0 885.1,375.2 885.1,368.8" fill="rgb(184,135,20)" stroke="rgb(184,135,20)" stroke-width="1"/>
<path d="M 757.1 372.0 C 825.4 372.0, 825.4 372.0, 887.6 372.0" fill="none" stroke="rgb(46,163,79)" stroke-width="1.1" stroke-dasharray="5,3"/>
<polygon points="892.6,372.0 885.1,375.2 885.1,368.8" fill="rgb(46,163,79)" stroke="rgb(46,163,79)" stroke-width="1"/>
<path d="M 1226.4 372.0 C 1276.4 372.0, 1276.4 400.0, 1320.4 400.0" fill="none" stroke="rgb(46,163,79)" stroke-width="1.1" stroke-dasharray="5,3"/>
<polygon points="1325.4,400.0 1317.9,403.2 1317.9,396.8" fill="rgb(46,163,79)" stroke="rgb(46,163,79)" stroke-width="1"/>
<path d="M 1226.4 372.0 C 1276.4 372.0, 1276.4 344.0, 1320.4 344.0" fill="none" stroke="rgb(46,163,79)" stroke-width="1.1" stroke-dasharray="5,3"/>
<polygon points="1325.4,344.0 1317.9,347.2 1317.9,340.8" fill="rgb(46,163,79)" stroke="rgb(46,163,79)" stroke-width="1"/>
<path d="M 1226.4 372.0 C 1276.4 372.0, 1276.4 344.0, 1320.4 344.0" fill="none" stroke="rgb(184,135,20)" stroke-width="1.1"/>
<polygon points="1325.4,344.0 1317.9,347.2 1317.9,340.8" fill="rgb(184,135,20)" stroke="rgb(184,135,20)" stroke-width="1"/>
<path d="M 1002.7 372.0 C 1164.5 372.0, 1164.5 400.0, 1320.4 400.0" fill="none" stroke="rgb(46,163,79)" stroke-width="1.1" stroke-dasharray="5,3"/>
<polygon points="1325.4,400.0 1317.9,403.2 1317.9,396.8" fill="rgb(46,163,79)" stroke="rgb(46,163,79)" stroke-width="1"/>
<path d="M 1002.7 372.0 C 1164.5 372.0, 1164.5 344.0, 1320.4 344.0" fill="none" stroke="rgb(46,163,79)" stroke-width="1.1" stroke-dasharray="5,3"/>
<polygon points="1325.4,344.0 1317.9,347.2 1317.9,340.8" fill="rgb(46,163,79)" stroke="rgb(46,163,79)" stroke-width="1"/>
<path d="M 793.6 428.0 C 1060.0 428.0, 1060.0 400.0, 1320.4 400.0" fill="none" stroke="rgb(46,163,79)" stroke-width="1.1" stroke-dasharray="5,3"/>
<polygon points="1325.4,400.0 1317.9,403.2 1317.9,396.8" fill="rgb(46,163,79)" stroke="rgb(46,163,79)" stroke-width="1"/>
<path d="M 793.6 428.0 C 843.6 428.0, 843.6 428.0, 887.6 428.0" fill="none" stroke="rgb(130,87,222)" stroke-width="1.1"/>
<polygon points="892.6,428.0 883.6,432.5 883.6,423.5" fill="#ffffff" stroke="rgb(130,87,222)" stroke-width="1"/>
<path d="M 764.4 260.0 C 1045.4 260.0, 1045.4 344.0, 1320.4 344.0" fill="none" stroke="rgb(46,163,79)" stroke-width="1.1" stroke-dasharray="5,3"/>
<polygon points="1325.4,344.0 1317.9,347.2 1317.9,340.8" fill="rgb(46,163,79)" stroke="rgb(46,163,79)" stroke-width="1"/>
<path d="M 764.4 260.0 C 829.0 260.0, 829.0 428.0, 887.6 428.0" fill="none" stroke="rgb(130,87,222)" stroke-width="1.1"/>
<polygon points="892.6,428.0 883.6,432.5 883.6,423.5" fill="#ffffff" stroke="rgb(130,87,222)" stroke-width="1"/>
<path d="M 764.4 260.0 C 829.0 260.0, 829.0 316.0, 887.6 316.0" fill="none" stroke="rgb(46,163,79)" stroke-width="1.1" stroke-dasharray="5,3"/>
<polygon points="892.6,316.0 885.1,319.2 885.1,312.8" fill="rgb(46,163,79)" stroke="rgb(46,163,79)" stroke-width="1"/>
<path d="M 1024.6 316.0 C 1074.6 316.0, 1074.6 372.0, 1118.6 372.0" fill="none" stroke="rgb(46,163,79)" stroke-width="1.1" stroke-dasharray="5,3"/>
<polygon points="1123.6,372.0 1116.1,375.2 1116.1,368.8" fill="rgb(46,163,79)" stroke="rgb(46,163,79)" stroke-width="1"/>
<path d="M 1024.6 316.0 C 1175.5 316.0, 1175.5 400.0, 1320.4 400.0" fill="none" stroke="rgb(46,163,79)" stroke-width="1.1" stroke-dasharray="5,3"/>
<polygon points="1325.4,400.0 1317.9,403.2 1317.9,396.8" fill="rgb(46,163,79)" stroke="rgb(46,163,79)" stroke-width="1"/>
<path d="M 1024.6 316.0 C 1175.5 316.0, 1175.5 344.0, 1320.4 344.0" fill="none" stroke="rgb(46,163,79)" stroke-width="1.1" stroke-dasharray="5,3"/>
<polygon points="1325.4,344.0 1317.9,347.2 1317.9,340.8" fill="rgb(46,163,79)" stroke="rgb(46,163,79)" stroke-width="1"/>
<path d="M 467.7 428.0 C 539.6 428.0, 539.6 428.0, 605.5 428.0" fill="none" stroke="rgb(184,135,20)" stroke-width="1.1"/>
<polygon points="610.5,428.0 603.0,431.2 603.0,424.8" fill="rgb(184,135,20)" stroke="rgb(184,135,20)" stroke-width="1"/>
<path d="M 504.2 260.0 C 915.3 260.0, 915.3 344.0, 1320.4 344.0" fill="none" stroke="rgb(184,135,20)" stroke-width="1.1"/>
<polygon points="1325.4,344.0 1317.9,347.2 1317.9,340.8" fill="rgb(184,135,20)" stroke="rgb(184,135,20)" stroke-width="1"/>
<text x="1316.4" y="339.0" font-family="Helvetica, Arial, sans-serif" font-size="8" fill="rgb(184,135,20)" text-anchor="end">x2</text>
<path d="M 504.2 260.0 C 557.9 260.0, 557.9 260.0, 605.5 260.0" fill="none" stroke="rgb(184,135,20)" stroke-width="1.1"/>
<polygon points="610.5,260.0 603.0,263.2 603.0,256.8" fill="rgb(184,135,20)" stroke="rgb(184,135,20)" stroke-width="1"/>
<path d="M 504.2 260.0 C 698.9 260.0, 698.9 316.0, 887.6 316.0" fill="none" stroke="rgb(184,135,20)" stroke-width="1.1"/>
<polygon points="892.6,316.0 885.1,319.2 885.1,312.8" fill="rgb(184,135,20)" stroke="rgb(184,135,20)" stroke-width="1"/>
<path d="M 200.2 372.0 C 405.9 372.0, 405.9 316.0, 605.5 316.0" fill="none" stroke="rgb(214,69,64)" stroke-width="1.1"/>
<polygon points="610.5,316.0 603.0,319.2 603.0,312.8" fill="rgb(214,69,64)" stroke="rgb(214,69,64)" stroke-width="1"/>
<path d="M 200.2 372.0 C 250.2 372.0, 250.2 316.0, 294.2 316.0" fill="none" stroke="rgb(184,135,20)" stroke-width="1.1"/>
<polygon points="299.2,316.0 291.7,319.2 291.7,312.8" fill="rgb(184,135,20)" stroke="rgb(184,135,20)" stroke-width="1"/>
<path d="M 200.2 372.0 C 250.2 372.0, 250.2 372.0, 294.2 372.0" fill="none" stroke="rgb(184,135,20)" stroke-width="1.1"/>
<polygon points="299.2,372.0 291.7,375.2 291.7,368.8" fill="rgb(184,135,20)" stroke="rgb(184,135,20)" stroke-width="1"/>
<path d="M 200.2 372.0 C 662.4 372.0, 662.4 372.0, 1118.6 372.0" fill="none" stroke="rgb(184,135,20)" stroke-width="1.1"/>
<polygon points="1123.6,372.0 1116.1,375.2 1116.1,368.8" fill="rgb(184,135,20)" stroke="rgb(184,135,20)" stroke-width="1"/>
<path d="M 200.2 372.0 C 546.9 372.0, 546.9 372.0, 887.6 372.0" fill="none" stroke="rgb(184,135,20)" stroke-width="1.1"/>
<polygon points="892.6,372.0 885.1,375.2 885.1,368.8" fill="rgb(184,135,20)" stroke="rgb(184,135,20)" stroke-width="1"/>
<path d="M 200.2 372.0 C 250.2 372.0, 250.2 428.0, 294.2 428.0" fill="none" stroke="rgb(48,110,204)" stroke-width="1.1" stroke-dasharray="2,3"/>
<polygon points="299.2,428.0 291.7,431.2 291.7,424.8" fill="rgb(48,110,204)" stroke="rgb(48,110,204)" stroke-width="1"/>
<path d="M 200.2 372.0 C 250.2 372.0, 250.2 260.0, 294.2 260.0" fill="none" stroke="rgb(48,110,204)" stroke-width="1.1" stroke-dasharray="2,3"/>
<polygon points="299.2,260.0 291.7,263.2 291.7,256.8" fill="rgb(48,110,204)" stroke="rgb(48,110,204)" stroke-width="1"/>
<path d="M 200.2 372.0 C 250.2 372.0, 250.2 484.0, 294.2 484.0" fill="none" stroke="rgb(46,163,79)" stroke-width="1.1" stroke-dasharray="5,3"/>
<polygon points="299.2,484.0 291.7,487.2 291.7,480.8" fill="rgb(46,163,79)" stroke="rgb(46,163,79)" stroke-width="1"/>
<rect x="40.0" y="357.0" width="160.2" height="30.0" rx="4" fill="#ffffff" stroke="#595959" stroke-width="2.2"/>
<text x="120.1" y="376.0" font-family="'Courier New', Courier, monospace" font-size="12" fill="#1a1a1a" text-anchor="middle">ExpenseTracker</text>
<rect x="611.5" y="301.0" width="138.3" height="30.0" rx="4" fill="#ffffff" stroke="#595959" stroke-width="1.1"/>
<text x="680.6" y="320.0" font-family="'Courier New', Courier, monospace" font-size="12" fill="#1a1a1a" text-anchor="middle">Categorizer</text>
<rect x="300.2" y="301.0" width="211.3" height="30.0" rx="4" fill="#ffffff" stroke="#595959" stroke-width="1.1"/>
<text x="405.8" y="320.0" font-family="'Courier New', Courier, monospace" font-size="12" fill="#1a1a1a" text-anchor="middle">BankStatementImporter</text>
<rect x="300.2" y="357.0" width="138.3" height="30.0" rx="4" fill="#ffffff" stroke="#595959" stroke-width="1.1"/>
<text x="369.4" y="376.0" font-family="'Courier New', Courier, monospace" font-size="12" fill="#1a1a1a" text-anchor="middle">CsvImporter</text>
<rect x="1124.6" y="357.0" width="101.8" height="30.0" rx="4" fill="#ffffff" stroke="#595959" stroke-width="1.1"/>
<text x="1175.5" y="376.0" font-family="'Courier New', Courier, monospace" font-size="12" fill="#1a1a1a" text-anchor="middle">Budget</text>
<rect x="893.6" y="357.0" width="109.1" height="30.0" rx="4" fill="#ffffff" stroke="#595959" stroke-width="1.1"/>
<text x="948.1" y="376.0" font-family="'Courier New', Courier, monospace" font-size="12" fill="#1a1a1a" text-anchor="middle">Expense</text>
<rect x="300.2" y="413.0" width="167.5" height="30.0" rx="14" fill="#ffffff" stroke="#595959" stroke-width="1.1"/>
<text x="383.9" y="432.0" font-family="'Courier New', Courier, monospace" font-size="12" fill="#1a1a1a" text-anchor="middle">build_breakdown</text>
<rect x="300.2" y="245.0" width="204.0" height="30.0" rx="14" fill="#ffffff" stroke="#595959" stroke-width="1.1"/>
<text x="402.2" y="264.0" font-family="'Courier New', Courier, monospace" font-size="12" fill="#1a1a1a" text-anchor="middle">build_monthly_report</text>
<rect x="300.2" y="469.0" width="94.5" height="30.0" rx="4" fill="#ffffff" stroke="#595959" stroke-width="1.1"/>
<text x="347.4" y="488.0" font-family="'Courier New', Courier, monospace" font-size="12" fill="#1a1a1a" text-anchor="middle">Store</text>
<rect x="1326.4" y="329.0" width="94.5" height="30.0" rx="4" fill="#ffffff" stroke="#595959" stroke-width="1.1"/>
<text x="1373.6" y="348.0" font-family="'Courier New', Courier, monospace" font-size="12" fill="#1a1a1a" text-anchor="middle">Money</text>
<rect x="611.5" y="245.0" width="152.9" height="30.0" rx="4" fill="#ffffff" stroke="#595959" stroke-width="1.1"/>
<text x="688.0" y="264.0" font-family="'Courier New', Courier, monospace" font-size="12" fill="#1a1a1a" text-anchor="middle">MonthlyReport</text>
<rect x="893.6" y="301.0" width="131.0" height="30.0" rx="4" fill="#ffffff" stroke="#595959" stroke-width="1.1"/>
<text x="959.1" y="320.0" font-family="'Courier New', Courier, monospace" font-size="12" fill="#1a1a1a" text-anchor="middle">ReportLine</text>
<rect x="1326.4" y="385.0" width="116.4" height="30.0" rx="4" fill="#ffffff" stroke="#595959" stroke-width="1.1"/>
<text x="1384.6" y="404.0" font-family="'Courier New', Courier, monospace" font-size="12" fill="#1a1a1a" text-anchor="middle">Category</text>
<rect x="893.6" y="413.0" width="101.8" height="30.0" rx="4" fill="#ffffff" stroke="#595959" stroke-width="1.1"/>
<text x="944.5" y="432.0" font-family="'Courier New', Courier, monospace" font-size="12" fill="#1a1a1a" text-anchor="middle">Report</text>
<rect x="611.5" y="413.0" width="182.1" height="30.0" rx="4" fill="#ffffff" stroke="#595959" stroke-width="1.1"/>
<text x="702.5" y="432.0" font-family="'Courier New', Courier, monospace" font-size="12" fill="#1a1a1a" text-anchor="middle">CategoryBreakdown</text>
<rect x="611.5" y="357.0" width="145.6" height="30.0" rx="4" fill="#ffffff" stroke="#595959" stroke-width="1.1"/>
<text x="684.3" y="376.0" font-family="'Courier New', Courier, monospace" font-size="12" fill="#1a1a1a" text-anchor="middle">ImportResult</text>
<rect x="611.5" y="469.0" width="116.4" height="30.0" rx="4" fill="#ffffff" stroke="#595959" stroke-width="1.1"/>
<text x="669.7" y="488.0" font-family="'Courier New', Courier, monospace" font-size="12" fill="#1a1a1a" text-anchor="middle">Importer</text>
</svg>